<?xml version="1.0" encoding="UTF-8"?>
<svg width="1814px" height="472px" viewBox="0 0 1814 472" version="1.1" xmlns="http://www.w3.org/2000/svg" xmlns:xlink="http://www.w3.org/1999/xlink">
    <!-- Generator: Sketch 50.2 (55047) - http://www.bohemiancoding.com/sketch -->
    <title>logo-primary</title>
    <desc>Created with Sketch.</desc>
    <defs></defs>
    <g id="logo-primary" stroke="none" stroke-width="1" fill="none" fill-rule="evenodd">
        <path d="M44.3113758,7 C71.1097874,7 85.6540528,19.1856287 85.6540528,43.5469062 L85.6540528,44.5449102 L77.7792572,44.5449102 L77.7792572,43.5469062 C77.7792572,24.0958084 66.1880402,13.8363273 44.3113758,13.8363273 C22.0932025,13.8363273 10.9439383,23.0878244 10.9439383,38.8662675 C10.9439383,52.3592814 19.1501986,60.2934132 33.0415791,62.9281437 L57.8712918,67.4790419 C76.1420229,71.1616766 87,80.6327345 87,98.506986 C87,120.772455 71.1399206,132 44.0100444,132 C16.8801682,132 1,119.844311 1,95.4431138 L1,94.7844311 L8.87479561,94.7844311 L8.87479561,95.4431138 C8.87479561,115.253493 21.7818267,125.153693 44.0301331,125.153693 C66.2784396,125.153693 78.4924083,116.221557 78.4924083,98.8163673 C78.4924083,85.3233533 70.1756599,77.6886228 56.2842794,75.1037924 L31.4545667,70.2035928 C13.6257884,66.8203593 2.32585844,57.0499002 2.32585844,39.2155689 C2.30576968,18.5269461 17.1814996,7 44.3113758,7 Z" id="Shape" fill="#131A22"></path>
        <path d="M145.500043,41 C166.983152,41 181,51.8482759 181,72.9371648 L181,100.192337 C181,121.450575 166.983152,132 145.500043,132 C124.238305,132 110.000085,121.450575 110.000085,100.192337 L110.000085,72.9371648 C109.959836,51.8482759 124.198056,41 145.500043,41 Z M145.500043,47.6045977 C128.957545,47.6045977 117.99965,55.743295 117.99965,72.5885057 L117.99965,100.849808 C117.99965,117.256705 128.957545,125.475096 145.500043,125.475096 C162.04254,125.475096 173.332492,117.256705 173.332492,100.849808 L173.332492,72.5885057 C173.292243,55.743295 162.012353,47.6045977 145.500043,47.6045977 Z" id="Shape" fill="#131A22"></path>
        <path d="M241.188562,41 C262.436297,41 275,52.5759301 275,73.1319756 L275,100.5534 C275,121.279827 262.436297,132.555083 241.188562,132.555083 C227.961495,132.555083 217.689411,128.28552 212.04077,119.65619 L212.04077,166 L204,166 L204,42.7238614 L210.362259,42.7238614 L211.367356,55.1817672 C217.026048,46.0212476 227.609711,41 241.188562,41 Z M240.183465,47.6448845 C222.021376,47.6448845 212.04077,58.2586594 212.04077,74.1041533 L212.04077,99.8919179 C212.04077,115.386626 222.011325,125.950289 240.183465,125.950289 C256.717299,125.950289 267.321065,117.020285 267.321065,101.174792 L267.321065,72.7811899 C267.38137,56.935696 256.747452,47.6448845 240.213618,47.6448845 L240.183465,47.6448845 Z" id="Shape" fill="#131A22"></path>
        <path d="M299.029796,2 L306.826334,2 L306.826334,54.052456 C312.785471,45.5238613 322.816686,41.1694731 335.579171,41.1694731 C356.237514,41.1694731 369,50.7591371 369,71.9404827 L369,131 L361.421964,131 L361.421964,71.5901296 C361.421964,55.0234345 351.053065,47.8061612 334.605846,47.8061612 C318.158627,47.8061612 306.796538,56.4248467 306.796538,72.9114612 L306.796538,130.96997 L299,130.96997 L299.029796,2 Z" id="Shape" fill="#131A22"></path>
        <path d="M395,130 L403,130 L403,42.198262 L395,42.198262 L395,130 Z M395,22.742195 L403,22.742195 L403,6 L395,6 L395,22.742195 Z" id="Shape" fill="#131A22" fill-rule="nonzero"></path>
        <path d="M461.461604,41 C482.073534,41 495,50.8887065 495,70.9549135 L495,130.346903 L488.642392,130.346903 L487.978464,119.840775 C482.073534,128.10626 471.430575,132 457.538396,132 C436.574384,132 424,124.162727 424,106.058328 C424,88.3522653 436.574384,80.1664478 457.538396,80.1664478 C470.776707,80.1664478 481.409606,83.8411031 486.972513,91.0111622 L486.972513,70.6561611 C486.972513,54.7824469 476.993483,47.303677 461.461604,47.303677 C445.22556,47.303677 436.262539,53.4679361 436.262539,68.2163493 L428.375886,68.2163493 C428.375886,49.2654848 440.547889,41 461.461604,41 Z M458.815954,86.4004158 C442.268065,86.4004158 431.655285,92.2559641 431.655285,106.028453 C431.655285,119.800941 442.247946,125.447363 458.815954,125.447363 C475.383961,125.447363 486.982573,118.476472 486.982573,106.028453 C486.982573,93.5804334 475.363842,86.4004158 458.815954,86.4004158 Z" id="Shape" fill="#131A22"></path>
        <polygon id="Shape" fill="#00A690" fill-rule="nonzero" points="518 22 518 22 619 22 619 18 518 18"></polygon>
        <polygon id="Shape" fill="#00A690" fill-rule="nonzero" points="518 10 518 10 619 10 619 6 518 6"></polygon>
        <polygon id="Shape" fill="#00A690" fill-rule="nonzero" points="560 131 560 131 564 131 564 30 560 30"></polygon>
        <polygon id="Shape" fill="#00A690" fill-rule="nonzero" points="572 131 572 131 576 131 576 30 572 30"></polygon>
        <polygon id="Shape" fill="#00A690" fill-rule="nonzero" points="708 76.916305 708 76.916305 753.286783 122 756 119.083695 710.932668 74"></polygon>
        <polygon id="Shape" fill="#00A690" fill-rule="nonzero" points="640 8.96284063 640 8.96284063 685.411618 54 688 51.0867052 642.92817 6"></polygon>
        <polygon id="Shape" fill="#00A690" fill-rule="nonzero" points="700 84.7104007 700 84.7104007 745.369317 130 748 127.070376 703.059165 82"></polygon>
        <polygon id="Shape" fill="#00A690" fill-rule="nonzero" points="632 17 632 17 677.376559 62 680 59.0891089 634.583541 14"></polygon>
        <polygon id="Shape" fill="#00A690" fill-rule="nonzero" points="702.300742 65.2444597 702.300742 65.2444597 699.270219 67.8649717 694.049319 73.5145164 691.108812 76.1350283 640 127.070606 642.930505 130 694.049319 79.0644219 696.639765 76.1350283 702.300742 70.8840405 704.931195 67.8649717 756 17.0190689 753.279531 14"></polygon>
        <polygon id="Shape" fill="#00A690" fill-rule="nonzero" points="694.29537 57.0148715 694.29537 57.0148715 691.355117 59.9465314 686.004656 65.4708158 683.064402 68.0933551 632 119.06834 634.590223 122 686.004656 71.1147597 688.634882 68.0933551 694.29537 62.888163 696.885594 59.9465314 748 8.9815181 745.359772 6"></polygon>
        <path d="M8.2,407 C7.199995,407 6.3500035,406.650004 5.65,405.95 C4.9499965,405.249997 4.6,404.400005 4.6,403.4 L4.6,200.6 C4.6,199.599995 4.9499965,198.750004 5.65,198.05 C6.3500035,197.349996 7.199995,197 8.2,197 L16.9,197 C17.900005,197 18.7499965,197.349996 19.45,198.05 C20.1500035,198.750004 20.5,199.599995 20.5,200.6 L20.5,305.9 C20.5,306.300002 20.699998,306.599999 21.1,306.8 C21.500002,307.000001 21.799999,306.900002 22,306.5 L123.1,198.8 C124.100005,197.599994 125.59999,197 127.6,197 L137.2,197 C139.400011,197 140.5,197.699993 140.5,199.1 C140.5,199.500002 140.100004,200.299994 139.3,201.5 L64.9,283.1 C64.499998,283.500002 64.499998,284.099996 64.9,284.9 L146.2,402.5 C146.600002,403.100003 146.8,403.799996 146.8,404.6 C146.8,406.200008 145.80001,407 143.8,407 L133.3,407 C131.499991,407 130.100005,406.200008 129.1,404.6 L54.1,296.3 C53.899999,295.899998 53.600002,295.7 53.2,295.7 C52.799998,295.7 52.500001,295.799999 52.3,296 L21.1,328.1 C20.699998,328.500002 20.5,328.999997 20.5,329.6 L20.5,403.4 C20.5,404.400005 20.1500035,405.249997 19.45,405.95 C18.7499965,406.650004 17.900005,407 16.9,407 L8.2,407 Z M237.7,395.6 C247.500049,395.399999 255.899965,393.150021 262.9,388.85 C269.900035,384.549979 275.099983,378.600038 278.5,371 C279.700006,368.99999 281.29999,368.399996 283.3,369.2 L288.7,371.3 C291.100012,372.300005 291.800005,373.899989 290.8,376.1 C286.399978,386.300051 279.500047,394.39997 270.1,400.4 C260.699953,406.40003 249.500065,409.4 236.5,409.4 C222.699931,409.4 211.050047,406.000034 201.55,399.2 C192.049952,392.399966 185.400019,383.100059 181.6,371.3 C178.799986,362.099954 177.4,348.700088 177.4,331.1 C177.4,321.299951 177.549998,313.900025 177.85,308.9 C178.150001,303.899975 178.799995,299.300021 179.8,295.1 C183.000016,282.499937 189.54995,272.400038 199.45,264.8 C209.350049,257.199962 221.499928,253.4 235.9,253.4 C251.90008,253.4 264.799951,257.599958 274.6,266 C284.400049,274.400042 290.599987,285.899927 293.2,300.5 C294.000004,304.50002 294.549999,308.649978 294.85,312.95 C295.150001,317.250022 295.3,323.799956 295.3,332.6 C295.3,335.200013 294.100012,336.5 291.7,336.5 L194.2,336.5 C193.399996,336.5 193,336.899996 193,337.7 C193,350.300063 193.499995,358.899977 194.5,363.5 C196.700011,373.100048 201.599962,380.849971 209.2,386.75 C216.800038,392.650029 226.299943,395.6 237.7,395.6 Z M195.1,298.7 C194.099995,302.500019 193.400002,310.39994 193,322.4 C193,323.200004 193.399996,323.6 194.2,323.6 L277.9,323.6 C278.700004,323.6 279.1,323.200004 279.1,322.4 C279.1,312.199949 278.600005,304.600025 277.6,299.6 C275.399989,289.999952 270.600037,282.250029 263.2,276.35 C255.799963,270.449971 246.700054,267.5 235.9,267.5 C225.099946,267.5 216.100036,270.349972 208.9,276.05 C201.699964,281.750028 197.10001,289.299953 195.1,298.7 Z M333.1,467 C332.499997,467 332.000002,466.650004 331.6,465.95 C331.199998,465.249997 331,464.400005 331,463.4 L331,456.8 C331,455.799995 331.199998,454.950003 331.6,454.25 C332.000002,453.549997 332.499997,453.2 333.1,453.2 L335.2,453.2 C342.800038,452.999999 348.749978,451.750011 353.05,449.45 C357.350021,447.149989 361.049984,442.950031 364.15,436.85 C367.250015,430.74997 370.899979,421.100066 375.1,407.9 C375.500002,407.099996 375.500002,406.500002 375.1,406.1 L324.1,260 C323.899999,259.599998 323.8,259.100003 323.8,258.5 C323.8,256.699991 324.899989,255.8 327.1,255.8 L336.1,255.8 C338.10001,255.8 339.399997,256.79999 340,258.8 L382.6,383.9 C382.800001,384.300002 383.099998,384.5 383.5,384.5 C383.900002,384.5 384.199999,384.300002 384.4,383.9 L425.5,258.8 C426.100003,256.79999 427.39999,255.8 429.4,255.8 L438.7,255.8 C439.900006,255.8 440.799997,256.149996 441.4,256.85 C442.000003,257.550004 442.100002,258.599993 441.7,260 L385.3,422.3 C380.699977,435.300065 376.40002,444.899969 372.4,451.1 C368.39998,457.300031 363.650027,461.499989 358.15,463.7 C352.649972,465.900011 345.000049,467 335.2,467 L333.1,467 Z M602.5,409.4 C588.899932,409.4 576.900052,406.700027 566.5,401.3 C556.099948,395.899973 548.050028,388.350049 542.35,378.65 C536.649971,368.949951 533.8,357.800063 533.8,345.2 L533.8,258.8 C533.8,245.999936 536.649971,234.750048 542.35,225.05 C548.050028,215.349952 556.099948,207.850027 566.5,202.55 C576.900052,197.249974 588.899932,194.6 602.5,194.6 C615.900067,194.6 627.749948,197.249974 638.05,202.55 C648.350051,207.850027 656.349971,215.199953 662.05,224.6 C667.750028,234.000047 670.6,244.799939 670.6,257 L670.6,260.6 C670.6,261.600005 670.250003,262.449996 669.55,263.15 C668.849996,263.850004 668.000005,264.2 667,264.2 L658.3,264.2 C657.299995,264.2 656.450003,263.850004 655.75,263.15 C655.049996,262.449996 654.7,261.600005 654.7,260.6 L654.7,257.3 C654.7,242.899928 649.900048,231.200045 640.3,222.2 C630.699952,213.199955 618.100078,208.7 602.5,208.7 C586.699921,208.7 573.950048,213.249955 564.25,222.35 C554.549951,231.450045 549.7,243.399926 549.7,258.2 L549.7,345.8 C549.7,360.600074 554.549951,372.549955 564.25,381.65 C573.950048,390.750045 586.79992,395.3 602.8,395.3 C618.400078,395.3 630.949952,390.950043 640.45,382.25 C649.950047,373.549957 654.7,362.000072 654.7,347.6 L654.7,317.3 C654.7,316.499996 654.300004,316.1 653.5,316.1 L607.3,316.1 C606.299995,316.1 605.450003,315.750004 604.75,315.05 C604.049996,314.349996 603.7,313.500005 603.7,312.5 L603.7,305.6 C603.7,304.599995 604.049996,303.750004 604.75,303.05 C605.450003,302.349996 606.299995,302 607.3,302 L667,302 C668.000005,302 668.849996,302.349996 669.55,303.05 C670.250003,303.750004 670.6,304.599995 670.6,305.6 L670.6,344 C670.6,364.200101 664.400062,380.149942 652,391.85 C639.599938,403.550058 623.100103,409.4 602.5,409.4 Z M773.2,395.6 C783.000049,395.399999 791.399965,393.150021 798.4,388.85 C805.400035,384.549979 810.599983,378.600038 814,371 C815.200006,368.99999 816.79999,368.399996 818.8,369.2 L824.2,371.3 C826.600012,372.300005 827.300005,373.899989 826.3,376.1 C821.899978,386.300051 815.000047,394.39997 805.6,400.4 C796.199953,406.40003 785.000065,409.4 772,409.4 C758.199931,409.4 746.550048,406.000034 737.05,399.2 C727.549952,392.399966 720.900019,383.100059 717.1,371.3 C714.299986,362.099954 712.9,348.700088 712.9,331.1 C712.9,321.299951 713.049998,313.900025 713.35,308.9 C713.650001,303.899975 714.299995,299.300021 715.3,295.1 C718.500016,282.499937 725.04995,272.400038 734.95,264.8 C744.850049,257.199962 756.999928,253.4 771.4,253.4 C787.40008,253.4 800.299951,257.599958 810.1,266 C819.900049,274.400042 826.099987,285.899927 828.7,300.5 C829.500004,304.50002 830.049998,308.649978 830.35,312.95 C830.650001,317.250022 830.8,323.799956 830.8,332.6 C830.8,335.200013 829.600012,336.5 827.2,336.5 L729.7,336.5 C728.899996,336.5 728.5,336.899996 728.5,337.7 C728.5,350.300063 728.999995,358.899977 730,363.5 C732.200011,373.100048 737.099962,380.849971 744.7,386.75 C752.300038,392.650029 761.799943,395.6 773.2,395.6 Z M730.6,298.7 C729.599995,302.500019 728.900002,310.39994 728.5,322.4 C728.5,323.200004 728.899996,323.6 729.7,323.6 L813.4,323.6 C814.200004,323.6 814.6,323.200004 814.6,322.4 C814.6,312.199949 814.100005,304.600025 813.1,299.6 C810.899989,289.999952 806.100037,282.250029 798.7,276.35 C791.299963,270.449971 782.200054,267.5 771.4,267.5 C760.599946,267.5 751.600036,270.349972 744.4,276.05 C737.199964,281.750028 732.60001,289.299953 730.6,298.7 Z M936.7,253.7 C952.100077,253.7 964.499953,258.399953 973.9,267.8 C983.300047,277.200047 988,289.599923 988,305 L988,403.4 C988,404.400005 987.650003,405.249997 986.95,405.95 C986.249996,406.650004 985.400005,407 984.4,407 L975.7,407 C974.699995,407 973.850003,406.650004 973.15,405.95 C972.449996,405.249997 972.1,404.400005 972.1,403.4 L972.1,308 C972.1,296.199941 968.500036,286.550038 961.3,279.05 C954.099964,271.549962 944.800057,267.8 933.4,267.8 C921.199939,267.8 911.400037,271.449964 904,278.75 C896.599963,286.050037 892.9,295.599941 892.9,307.4 L892.9,403.4 C892.9,404.400005 892.550003,405.249997 891.85,405.95 C891.149996,406.650004 890.300005,407 889.3,407 L880.6,407 C879.599995,407 878.750003,406.650004 878.05,405.95 C877.349996,405.249997 877,404.400005 877,403.4 L877,259.4 C877,258.399995 877.349996,257.550004 878.05,256.85 C878.750003,256.149996 879.599995,255.8 880.6,255.8 L889.3,255.8 C890.300005,255.8 891.149996,256.149996 891.85,256.85 C892.550003,257.550004 892.9,258.399995 892.9,259.4 L892.9,273.5 C892.9,274.100003 893.049998,274.449999 893.35,274.55 C893.650001,274.650001 893.899999,274.500002 894.1,274.1 C898.500022,267.499967 904.349963,262.450018 911.65,258.95 C918.950036,255.449983 927.299953,253.7 936.7,253.7 Z M1093.6,395.6 C1103.40005,395.399999 1111.79996,393.150021 1118.8,388.85 C1125.80003,384.549979 1130.99998,378.600038 1134.4,371 C1135.60001,368.99999 1137.19999,368.399996 1139.2,369.2 L1144.6,371.3 C1147.00001,372.300005 1147.7,373.899989 1146.7,376.1 C1142.29998,386.300051 1135.40005,394.39997 1126,400.4 C1116.59995,406.40003 1105.40006,409.4 1092.4,409.4 C1078.59993,409.4 1066.95005,406.000034 1057.45,399.2 C1047.94995,392.399966 1041.30002,383.100059 1037.5,371.3 C1034.69999,362.099954 1033.3,348.700088 1033.3,331.1 C1033.3,321.299951 1033.45,313.900025 1033.75,308.9 C1034.05,303.899975 1034.69999,299.300021 1035.7,295.1 C1038.90002,282.499937 1045.44995,272.400038 1055.35,264.8 C1065.25005,257.199962 1077.39993,253.4 1091.8,253.4 C1107.80008,253.4 1120.69995,257.599958 1130.5,266 C1140.30005,274.400042 1146.49999,285.899927 1149.1,300.5 C1149.9,304.50002 1150.45,308.649978 1150.75,312.95 C1151.05,317.250022 1151.2,323.799956 1151.2,332.6 C1151.2,335.200013 1150.00001,336.5 1147.6,336.5 L1050.1,336.5 C1049.3,336.5 1048.9,336.899996 1048.9,337.7 C1048.9,350.300063 1049.39999,358.899977 1050.4,363.5 C1052.60001,373.100048 1057.49996,380.849971 1065.1,386.75 C1072.70004,392.650029 1082.19994,395.6 1093.6,395.6 Z M1051,298.7 C1049.99999,302.500019 1049.3,310.39994 1048.9,322.4 C1048.9,323.200004 1049.3,323.6 1050.1,323.6 L1133.8,323.6 C1134.6,323.6 1135,323.200004 1135,322.4 C1135,312.199949 1134.5,304.600025 1133.5,299.6 C1131.29999,289.999952 1126.50004,282.250029 1119.1,276.35 C1111.69996,270.449971 1102.60005,267.5 1091.8,267.5 C1080.99995,267.5 1072.00004,270.349972 1064.8,276.05 C1057.59996,281.750028 1053.00001,289.299953 1051,298.7 Z M1254.4,254.6 C1260.60003,254.6 1266.29997,255.699989 1271.5,257.9 C1273.30001,258.700004 1273.9,260.199989 1273.3,262.4 L1270.9,271.1 C1270.3,273.500012 1268.80001,274.200005 1266.4,273.2 C1261.99998,271.799993 1257.20003,271.199999 1252,271.4 C1240.79994,271.600001 1231.55004,275.849959 1224.25,284.15 C1216.94996,292.450041 1213.3,302.59994 1213.3,314.6 L1213.3,403.4 C1213.3,404.400005 1212.95,405.249997 1212.25,405.95 C1211.55,406.650004 1210.7,407 1209.7,407 L1201,407 C1199.99999,407 1199.15,406.650004 1198.45,405.95 C1197.75,405.249997 1197.4,404.400005 1197.4,403.4 L1197.4,259.4 C1197.4,258.399995 1197.75,257.550004 1198.45,256.85 C1199.15,256.149996 1199.99999,255.8 1201,255.8 L1209.7,255.8 C1210.7,255.8 1211.55,256.149996 1212.25,256.85 C1212.95,257.550004 1213.3,258.399995 1213.3,259.4 L1213.3,279.2 C1213.3,279.800003 1213.45,280.15 1213.75,280.25 C1214.05,280.35 1214.3,280.100003 1214.5,279.5 C1218.70002,271.699961 1224.14997,265.600022 1230.85,261.2 C1237.55003,256.799978 1245.39995,254.6 1254.4,254.6 Z M1355.2,253.4 C1372.80009,253.4 1386.19995,257.949954 1395.4,267.05 C1404.60005,276.150046 1409.2,288.399923 1409.2,303.8 L1409.2,403.4 C1409.2,404.400005 1408.85,405.249997 1408.15,405.95 C1407.45,406.650004 1406.6,407 1405.6,407 L1396.9,407 C1395.89999,407 1395.05,406.650004 1394.35,405.95 C1393.65,405.249997 1393.3,404.400005 1393.3,403.4 L1393.3,390.5 C1393.3,390.099998 1393.15,389.800001 1392.85,389.6 C1392.55,389.399999 1392.2,389.499998 1391.8,389.9 C1386.59997,396.300032 1379.70004,401.149984 1371.1,404.45 C1362.49996,407.750017 1353.30005,409.4 1343.5,409.4 C1329.49993,409.4 1317.80005,405.950035 1308.4,399.05 C1298.99995,392.149966 1294.3,381.400073 1294.3,366.8 C1294.3,351.999926 1299.79994,340.300043 1310.8,331.7 C1321.80005,323.099957 1336.8999,318.8 1356.1,318.8 L1392.1,318.8 C1392.9,318.8 1393.3,318.400004 1393.3,317.6 L1393.3,304.1 C1393.3,292.699943 1390.20003,283.750032 1384,277.25 C1377.79997,270.749968 1368.10007,267.5 1354.9,267.5 C1344.69995,267.5 1336.30003,269.54998 1329.7,273.65 C1323.09997,277.750021 1319.00001,283.299965 1317.4,290.3 C1316.8,292.700012 1315.40001,293.700002 1313.2,293.3 L1303.9,292.1 C1301.29999,291.699998 1300.2,290.600009 1300.6,288.8 C1302.60001,278.199947 1308.49995,269.650033 1318.3,263.15 C1328.10005,256.649968 1340.39993,253.4 1355.2,253.4 Z M1346.5,395.6 C1359.10006,395.6 1370.04995,392.500031 1379.35,386.3 C1388.65005,380.099969 1393.3,371.500055 1393.3,360.5 L1393.3,333.2 C1393.3,332.399996 1392.9,332 1392.1,332 L1357.9,332 C1343.49993,332 1331.95004,334.99997 1323.25,341 C1314.54996,347.00003 1310.2,355.299947 1310.2,365.9 C1310.2,375.700049 1313.59997,383.099975 1320.4,388.1 C1327.20003,393.100025 1335.89995,395.6 1346.5,395.6 Z M1519.9,265.7 C1519.9,266.700005 1519.55,267.549997 1518.85,268.25 C1518.15,268.950003 1517.3,269.3 1516.3,269.3 L1481.8,269.3 C1481,269.3 1480.6,269.699996 1480.6,270.5 L1480.6,365 C1480.6,375.200051 1482.89998,382.34998 1487.5,386.45 C1492.10002,390.550021 1499.49995,392.6 1509.7,392.6 L1516,392.6 C1517,392.6 1517.85,392.949996 1518.55,393.65 C1519.25,394.350004 1519.6,395.199995 1519.6,396.2 L1519.6,403.1 C1519.6,405.500012 1518.40001,406.7 1516,406.7 L1507.6,407 C1493.79993,407 1483.30004,404.300027 1476.1,398.9 C1468.89996,393.499973 1465.2,383.600072 1465,369.2 L1465,270.5 C1465,269.699996 1464.6,269.3 1463.8,269.3 L1446.4,269.3 C1445.39999,269.3 1444.55,268.950003 1443.85,268.25 C1443.15,267.549997 1442.8,266.700005 1442.8,265.7 L1442.8,259.4 C1442.8,258.399995 1443.15,257.550004 1443.85,256.85 C1444.55,256.149996 1445.39999,255.8 1446.4,255.8 L1463.8,255.8 C1464.6,255.8 1465,255.400004 1465,254.6 L1465,221 C1465,219.999995 1465.35,219.150004 1466.05,218.45 C1466.75,217.749997 1467.59999,217.4 1468.6,217.4 L1477,217.4 C1478,217.4 1478.85,217.749997 1479.55,218.45 C1480.25,219.150004 1480.6,219.999995 1480.6,221 L1480.6,254.6 C1480.6,255.400004 1481,255.8 1481.8,255.8 L1516.3,255.8 C1517.3,255.8 1518.15,256.149996 1518.85,256.85 C1519.55,257.550004 1519.9,258.399995 1519.9,259.4 L1519.9,265.7 Z M1619.5,409.4 C1605.29993,409.4 1593.25005,405.700037 1583.35,398.3 C1573.44995,390.899963 1566.70002,381.000062 1563.1,368.6 C1560.69999,360.59996 1559.5,348.100085 1559.5,331.1 C1559.5,315.09992 1560.59999,302.700044 1562.8,293.9 C1566.40002,281.499938 1573.19995,271.650036 1583.2,264.35 C1593.20005,257.049963 1605.29993,253.4 1619.5,253.4 C1633.50007,253.4 1645.54995,257.099963 1655.65,264.5 C1665.75005,271.900037 1672.49998,281.699939 1675.9,293.9 C1678.10001,301.90004 1679.2,314.299916 1679.2,331.1 C1679.2,348.100085 1678.10001,360.59996 1675.9,368.6 C1672.49998,381.000062 1665.75005,390.899963 1655.65,398.3 C1645.54995,405.700037 1633.50007,409.4 1619.5,409.4 Z M1619.5,395.3 C1630.10005,395.3 1639.14996,392.400029 1646.65,386.6 C1654.15004,380.799971 1658.99999,373.000049 1661.2,363.2 C1662.40001,357.599972 1663,347.000078 1663,331.4 C1663,315.39992 1662.40001,304.800026 1661.2,299.6 C1658.99999,289.799951 1654.15004,282.000029 1646.65,276.2 C1639.14996,270.399971 1630.00005,267.5 1619.2,267.5 C1608.39995,267.5 1599.30004,270.399971 1591.9,276.2 C1584.49996,282.000029 1579.70001,289.799951 1577.5,299.6 C1576.29999,304.800026 1575.7,315.39992 1575.7,331.4 C1575.7,347.40008 1576.29999,357.999974 1577.5,363.2 C1579.70001,373.000049 1584.49996,380.799971 1591.9,386.6 C1599.30004,392.400029 1608.49995,395.3 1619.5,395.3 Z M1783.3,254.6 C1789.50003,254.6 1795.19997,255.699989 1800.4,257.9 C1802.20001,258.700004 1802.8,260.199989 1802.2,262.4 L1799.8,271.1 C1799.2,273.500012 1797.70001,274.200005 1795.3,273.2 C1790.89998,271.799993 1786.10003,271.199999 1780.9,271.4 C1769.69994,271.600001 1760.45004,275.849959 1753.15,284.15 C1745.84996,292.450041 1742.2,302.59994 1742.2,314.6 L1742.2,403.4 C1742.2,404.400005 1741.85,405.249997 1741.15,405.95 C1740.45,406.650004 1739.6,407 1738.6,407 L1729.9,407 C1728.89999,407 1728.05,406.650004 1727.35,405.95 C1726.65,405.249997 1726.3,404.400005 1726.3,403.4 L1726.3,259.4 C1726.3,258.399995 1726.65,257.550004 1727.35,256.85 C1728.05,256.149996 1728.89999,255.8 1729.9,255.8 L1738.6,255.8 C1739.6,255.8 1740.45,256.149996 1741.15,256.85 C1741.85,257.550004 1742.2,258.399995 1742.2,259.4 L1742.2,279.2 C1742.2,279.800003 1742.35,280.15 1742.65,280.25 C1742.95,280.35 1743.2,280.100003 1743.4,279.5 C1747.60002,271.699961 1753.04997,265.600022 1759.75,261.2 C1766.45003,256.799978 1774.29995,254.6 1783.3,254.6 Z" id="Key-Generator" fill="#000000"></path>
    </g>
</svg>